<?xml version="1.0" encoding="iso-8859-1"?>
<!-- Generator: Adobe Illustrator 19.0.0, SVG Export Plug-In . SVG Version: 6.00 Build 0)  -->
<svg version="1.1" id="Capa_1" xmlns="http://www.w3.org/2000/svg" xmlns:xlink="http://www.w3.org/1999/xlink" x="0px" y="0px"
	 viewBox="0 0 512 512" style="enable-background:new 0 0 512 512;" xml:space="preserve">
<g>
	<g>
		<path d="M351.979,49.892L331,40.773v98.89l6.856,4.433C381.152,172.086,407,219.526,407,271c0,83.262-67.738,151-151,151
			s-151-67.738-151-151c0-51.474,25.848-98.914,69.144-126.904l6.856-4.433v-98.89l-20.979,9.118C71.924,88.183,15,174.973,15,271
			c0,64.373,25.068,124.894,70.587,170.413C131.106,486.932,191.626,512,256,512c64.373,0,124.894-25.068,170.413-70.587
			C471.932,395.894,497,335.373,497,271C497,174.973,440.076,88.183,351.979,49.892z"/>
	</g>
</g>
<g>
	<g>
		<rect x="211" width="90" height="271"/>
	</g>
</g>
<g>
</g>
<g>
</g>
<g>
</g>
<g>
</g>
<g>
</g>
<g>
</g>
<g>
</g>
<g>
</g>
<g>
</g>
<g>
</g>
<g>
</g>
<g>
</g>
<g>
</g>
<g>
</g>
<g>
</g>
</svg>
